  <svg
    version="1.0"
    xmlns="http://www.w3.org/2000/svg"
    width="1055"
    height="1055"
    preserveAspectRatio="xMidYMid meet"
    viewBox="0 0 1055 1055"
  >
    <g
      transform="translate(-760,1250) scale(0.1,-0.1)"
      fill="#BEBEBE"
      fill-opacity="0.5"
      stroke="none"
    >
      <path
        d="M7565 11506 c-20 -14 -20 -26 -20 -2108 l0 -2093 27 -55 c16 -34 673
-862 1720 -2170 1312 -1639 1704 -2122 1740 -2147 32 -21 70 -35 115 -43 50
-8 492 -10 1680 -8 1503 3 1613 4 1629 20 10 9 17 30 17 46 0 27 -617 802
-6353 7972 -419 524 -479 595 -505 598 -17 2 -39 -4 -50 -12z"
      />
      <path
        d="M17898 11443 c-35 -43 -520 -649 -1078 -1347 -558 -699 -1543 -1929
-2187 -2735 -768 -960 -1173 -1474 -1173 -1488 0 -13 9 -32 20 -43 20 -20 29
-20 1688 -18 l1667 3 53 30 c49 26 106 95 589 698 294 368 545 690 556 715
l22 47 0 2093 c0 2061 0 2094 -19 2108 -43 31 -70 19 -138 -63z"
      />
    </g>
  </svg>